<?xml version="1.0" encoding="utf-8" standalone="no"?>
<!DOCTYPE svg PUBLIC "-//W3C//DTD SVG 1.1//EN"
  "http://www.w3.org/Graphics/SVG/1.1/DTD/svg11.dtd">
<!-- Created with matplotlib (https://matplotlib.org/) -->
<svg height="360pt" version="1.1" viewBox="0 0 576 360" width="576pt" xmlns="http://www.w3.org/2000/svg" xmlns:xlink="http://www.w3.org/1999/xlink">
 <defs>
  <style type="text/css">
*{stroke-linecap:butt;stroke-linejoin:round;}
  </style>
 </defs>
 <g id="figure_1">
  <g id="patch_1">
   <path d="M 0 360 
L 576 360 
L 576 0 
L 0 0 
z
" style="fill:#ffffff;"/>
  </g>
  <g id="axes_1">
   <g id="patch_2">
    <path d="M 72 315 
L 518.4 315 
L 518.4 43.2 
L 72 43.2 
z
" style="fill:#ffffff;"/>
   </g>
   <g id="matplotlib.axis_1">
    <g id="xtick_1">
     <g id="line2d_1">
      <path clip-path="url(#pdf061347f4)" d="M 72 315 
L 72 43.2 
" style="fill:none;stroke:#b0b0b0;stroke-linecap:square;stroke-width:0.8;"/>
     </g>
     <g id="line2d_2">
      <defs>
       <path d="M 0 0 
L 0 3.5 
" id="mf20ad55598" style="stroke:#000000;stroke-width:0.8;"/>
      </defs>
      <g>
       <use style="stroke:#000000;stroke-width:0.8;" x="72" xlink:href="#mf20ad55598" y="315"/>
      </g>
     </g>
     <g id="text_1">
      <!-- 0 -->
      <defs>
       <path d="M 31.78125 66.40625 
Q 24.171875 66.40625 20.328125 58.90625 
Q 16.5 51.421875 16.5 36.375 
Q 16.5 21.390625 20.328125 13.890625 
Q 24.171875 6.390625 31.78125 6.390625 
Q 39.453125 6.390625 43.28125 13.890625 
Q 47.125 21.390625 47.125 36.375 
Q 47.125 51.421875 43.28125 58.90625 
Q 39.453125 66.40625 31.78125 66.40625 
z
M 31.78125 74.21875 
Q 44.046875 74.21875 50.515625 64.515625 
Q 56.984375 54.828125 56.984375 36.375 
Q 56.984375 17.96875 50.515625 8.265625 
Q 44.046875 -1.421875 31.78125 -1.421875 
Q 19.53125 -1.421875 13.0625 8.265625 
Q 6.59375 17.96875 6.59375 36.375 
Q 6.59375 54.828125 13.0625 64.515625 
Q 19.53125 74.21875 31.78125 74.21875 
z
" id="DejaVuSans-48"/>
      </defs>
      <g transform="translate(68.81875 329.598437)scale(0.1 -0.1)">
       <use xlink:href="#DejaVuSans-48"/>
      </g>
     </g>
    </g>
    <g id="xtick_2">
     <g id="line2d_3">
      <path clip-path="url(#pdf061347f4)" d="M 162.181818 315 
L 162.181818 43.2 
" style="fill:none;stroke:#b0b0b0;stroke-linecap:square;stroke-width:0.8;"/>
     </g>
     <g id="line2d_4">
      <g>
       <use style="stroke:#000000;stroke-width:0.8;" x="162.181818" xlink:href="#mf20ad55598" y="315"/>
      </g>
     </g>
     <g id="text_2">
      <!-- 20 -->
      <defs>
       <path d="M 19.1875 8.296875 
L 53.609375 8.296875 
L 53.609375 0 
L 7.328125 0 
L 7.328125 8.296875 
Q 12.9375 14.109375 22.625 23.890625 
Q 32.328125 33.6875 34.8125 36.53125 
Q 39.546875 41.84375 41.421875 45.53125 
Q 43.3125 49.21875 43.3125 52.78125 
Q 43.3125 58.59375 39.234375 62.25 
Q 35.15625 65.921875 28.609375 65.921875 
Q 23.96875 65.921875 18.8125 64.3125 
Q 13.671875 62.703125 7.8125 59.421875 
L 7.8125 69.390625 
Q 13.765625 71.78125 18.9375 73 
Q 24.125 74.21875 28.421875 74.21875 
Q 39.75 74.21875 46.484375 68.546875 
Q 53.21875 62.890625 53.21875 53.421875 
Q 53.21875 48.921875 51.53125 44.890625 
Q 49.859375 40.875 45.40625 35.40625 
Q 44.1875 33.984375 37.640625 27.21875 
Q 31.109375 20.453125 19.1875 8.296875 
z
" id="DejaVuSans-50"/>
      </defs>
      <g transform="translate(155.819318 329.598437)scale(0.1 -0.1)">
       <use xlink:href="#DejaVuSans-50"/>
       <use x="63.623047" xlink:href="#DejaVuSans-48"/>
      </g>
     </g>
    </g>
    <g id="xtick_3">
     <g id="line2d_5">
      <path clip-path="url(#pdf061347f4)" d="M 252.363636 315 
L 252.363636 43.2 
" style="fill:none;stroke:#b0b0b0;stroke-linecap:square;stroke-width:0.8;"/>
     </g>
     <g id="line2d_6">
      <g>
       <use style="stroke:#000000;stroke-width:0.8;" x="252.363636" xlink:href="#mf20ad55598" y="315"/>
      </g>
     </g>
     <g id="text_3">
      <!-- 40 -->
      <defs>
       <path d="M 37.796875 64.3125 
L 12.890625 25.390625 
L 37.796875 25.390625 
z
M 35.203125 72.90625 
L 47.609375 72.90625 
L 47.609375 25.390625 
L 58.015625 25.390625 
L 58.015625 17.1875 
L 47.609375 17.1875 
L 47.609375 0 
L 37.796875 0 
L 37.796875 17.1875 
L 4.890625 17.1875 
L 4.890625 26.703125 
z
" id="DejaVuSans-52"/>
      </defs>
      <g transform="translate(246.001136 329.598437)scale(0.1 -0.1)">
       <use xlink:href="#DejaVuSans-52"/>
       <use x="63.623047" xlink:href="#DejaVuSans-48"/>
      </g>
     </g>
    </g>
    <g id="xtick_4">
     <g id="line2d_7">
      <path clip-path="url(#pdf061347f4)" d="M 342.545455 315 
L 342.545455 43.2 
" style="fill:none;stroke:#b0b0b0;stroke-linecap:square;stroke-width:0.8;"/>
     </g>
     <g id="line2d_8">
      <g>
       <use style="stroke:#000000;stroke-width:0.8;" x="342.545455" xlink:href="#mf20ad55598" y="315"/>
      </g>
     </g>
     <g id="text_4">
      <!-- 60 -->
      <defs>
       <path d="M 33.015625 40.375 
Q 26.375 40.375 22.484375 35.828125 
Q 18.609375 31.296875 18.609375 23.390625 
Q 18.609375 15.53125 22.484375 10.953125 
Q 26.375 6.390625 33.015625 6.390625 
Q 39.65625 6.390625 43.53125 10.953125 
Q 47.40625 15.53125 47.40625 23.390625 
Q 47.40625 31.296875 43.53125 35.828125 
Q 39.65625 40.375 33.015625 40.375 
z
M 52.59375 71.296875 
L 52.59375 62.3125 
Q 48.875 64.0625 45.09375 64.984375 
Q 41.3125 65.921875 37.59375 65.921875 
Q 27.828125 65.921875 22.671875 59.328125 
Q 17.53125 52.734375 16.796875 39.40625 
Q 19.671875 43.65625 24.015625 45.921875 
Q 28.375 48.1875 33.59375 48.1875 
Q 44.578125 48.1875 50.953125 41.515625 
Q 57.328125 34.859375 57.328125 23.390625 
Q 57.328125 12.15625 50.6875 5.359375 
Q 44.046875 -1.421875 33.015625 -1.421875 
Q 20.359375 -1.421875 13.671875 8.265625 
Q 6.984375 17.96875 6.984375 36.375 
Q 6.984375 53.65625 15.1875 63.9375 
Q 23.390625 74.21875 37.203125 74.21875 
Q 40.921875 74.21875 44.703125 73.484375 
Q 48.484375 72.75 52.59375 71.296875 
z
" id="DejaVuSans-54"/>
      </defs>
      <g transform="translate(336.182955 329.598437)scale(0.1 -0.1)">
       <use xlink:href="#DejaVuSans-54"/>
       <use x="63.623047" xlink:href="#DejaVuSans-48"/>
      </g>
     </g>
    </g>
    <g id="xtick_5">
     <g id="line2d_9">
      <path clip-path="url(#pdf061347f4)" d="M 432.727273 315 
L 432.727273 43.2 
" style="fill:none;stroke:#b0b0b0;stroke-linecap:square;stroke-width:0.8;"/>
     </g>
     <g id="line2d_10">
      <g>
       <use style="stroke:#000000;stroke-width:0.8;" x="432.727273" xlink:href="#mf20ad55598" y="315"/>
      </g>
     </g>
     <g id="text_5">
      <!-- 80 -->
      <defs>
       <path d="M 31.78125 34.625 
Q 24.75 34.625 20.71875 30.859375 
Q 16.703125 27.09375 16.703125 20.515625 
Q 16.703125 13.921875 20.71875 10.15625 
Q 24.75 6.390625 31.78125 6.390625 
Q 38.8125 6.390625 42.859375 10.171875 
Q 46.921875 13.96875 46.921875 20.515625 
Q 46.921875 27.09375 42.890625 30.859375 
Q 38.875 34.625 31.78125 34.625 
z
M 21.921875 38.8125 
Q 15.578125 40.375 12.03125 44.71875 
Q 8.5 49.078125 8.5 55.328125 
Q 8.5 64.0625 14.71875 69.140625 
Q 20.953125 74.21875 31.78125 74.21875 
Q 42.671875 74.21875 48.875 69.140625 
Q 55.078125 64.0625 55.078125 55.328125 
Q 55.078125 49.078125 51.53125 44.71875 
Q 48 40.375 41.703125 38.8125 
Q 48.828125 37.15625 52.796875 32.3125 
Q 56.78125 27.484375 56.78125 20.515625 
Q 56.78125 9.90625 50.3125 4.234375 
Q 43.84375 -1.421875 31.78125 -1.421875 
Q 19.734375 -1.421875 13.25 4.234375 
Q 6.78125 9.90625 6.78125 20.515625 
Q 6.78125 27.484375 10.78125 32.3125 
Q 14.796875 37.15625 21.921875 38.8125 
z
M 18.3125 54.390625 
Q 18.3125 48.734375 21.84375 45.5625 
Q 25.390625 42.390625 31.78125 42.390625 
Q 38.140625 42.390625 41.71875 45.5625 
Q 45.3125 48.734375 45.3125 54.390625 
Q 45.3125 60.0625 41.71875 63.234375 
Q 38.140625 66.40625 31.78125 66.40625 
Q 25.390625 66.40625 21.84375 63.234375 
Q 18.3125 60.0625 18.3125 54.390625 
z
" id="DejaVuSans-56"/>
      </defs>
      <g transform="translate(426.364773 329.598437)scale(0.1 -0.1)">
       <use xlink:href="#DejaVuSans-56"/>
       <use x="63.623047" xlink:href="#DejaVuSans-48"/>
      </g>
     </g>
    </g>
   </g>
   <g id="matplotlib.axis_2">
    <g id="ytick_1">
     <g id="line2d_11">
      <path clip-path="url(#pdf061347f4)" d="M 72 315 
L 518.4 315 
" style="fill:none;stroke:#b0b0b0;stroke-linecap:square;stroke-width:0.8;"/>
     </g>
     <g id="line2d_12">
      <defs>
       <path d="M 0 0 
L -3.5 0 
" id="mc9930eccb9" style="stroke:#000000;stroke-width:0.8;"/>
      </defs>
      <g>
       <use style="stroke:#000000;stroke-width:0.8;" x="72" xlink:href="#mc9930eccb9" y="315"/>
      </g>
     </g>
     <g id="text_6">
      <!-- 0.0 -->
      <defs>
       <path d="M 10.6875 12.40625 
L 21 12.40625 
L 21 0 
L 10.6875 0 
z
" id="DejaVuSans-46"/>
      </defs>
      <g transform="translate(49.096875 318.799219)scale(0.1 -0.1)">
       <use xlink:href="#DejaVuSans-48"/>
       <use x="63.623047" xlink:href="#DejaVuSans-46"/>
       <use x="95.410156" xlink:href="#DejaVuSans-48"/>
      </g>
     </g>
    </g>
    <g id="ytick_2">
     <g id="line2d_13">
      <path clip-path="url(#pdf061347f4)" d="M 72 260.64 
L 518.4 260.64 
" style="fill:none;stroke:#b0b0b0;stroke-linecap:square;stroke-width:0.8;"/>
     </g>
     <g id="line2d_14">
      <g>
       <use style="stroke:#000000;stroke-width:0.8;" x="72" xlink:href="#mc9930eccb9" y="260.64"/>
      </g>
     </g>
     <g id="text_7">
      <!-- 0.2 -->
      <g transform="translate(49.096875 264.439219)scale(0.1 -0.1)">
       <use xlink:href="#DejaVuSans-48"/>
       <use x="63.623047" xlink:href="#DejaVuSans-46"/>
       <use x="95.410156" xlink:href="#DejaVuSans-50"/>
      </g>
     </g>
    </g>
    <g id="ytick_3">
     <g id="line2d_15">
      <path clip-path="url(#pdf061347f4)" d="M 72 206.28 
L 518.4 206.28 
" style="fill:none;stroke:#b0b0b0;stroke-linecap:square;stroke-width:0.8;"/>
     </g>
     <g id="line2d_16">
      <g>
       <use style="stroke:#000000;stroke-width:0.8;" x="72" xlink:href="#mc9930eccb9" y="206.28"/>
      </g>
     </g>
     <g id="text_8">
      <!-- 0.4 -->
      <g transform="translate(49.096875 210.079219)scale(0.1 -0.1)">
       <use xlink:href="#DejaVuSans-48"/>
       <use x="63.623047" xlink:href="#DejaVuSans-46"/>
       <use x="95.410156" xlink:href="#DejaVuSans-52"/>
      </g>
     </g>
    </g>
    <g id="ytick_4">
     <g id="line2d_17">
      <path clip-path="url(#pdf061347f4)" d="M 72 151.92 
L 518.4 151.92 
" style="fill:none;stroke:#b0b0b0;stroke-linecap:square;stroke-width:0.8;"/>
     </g>
     <g id="line2d_18">
      <g>
       <use style="stroke:#000000;stroke-width:0.8;" x="72" xlink:href="#mc9930eccb9" y="151.92"/>
      </g>
     </g>
     <g id="text_9">
      <!-- 0.6 -->
      <g transform="translate(49.096875 155.719219)scale(0.1 -0.1)">
       <use xlink:href="#DejaVuSans-48"/>
       <use x="63.623047" xlink:href="#DejaVuSans-46"/>
       <use x="95.410156" xlink:href="#DejaVuSans-54"/>
      </g>
     </g>
    </g>
    <g id="ytick_5">
     <g id="line2d_19">
      <path clip-path="url(#pdf061347f4)" d="M 72 97.56 
L 518.4 97.56 
" style="fill:none;stroke:#b0b0b0;stroke-linecap:square;stroke-width:0.8;"/>
     </g>
     <g id="line2d_20">
      <g>
       <use style="stroke:#000000;stroke-width:0.8;" x="72" xlink:href="#mc9930eccb9" y="97.56"/>
      </g>
     </g>
     <g id="text_10">
      <!-- 0.8 -->
      <g transform="translate(49.096875 101.359219)scale(0.1 -0.1)">
       <use xlink:href="#DejaVuSans-48"/>
       <use x="63.623047" xlink:href="#DejaVuSans-46"/>
       <use x="95.410156" xlink:href="#DejaVuSans-56"/>
      </g>
     </g>
    </g>
    <g id="ytick_6">
     <g id="line2d_21">
      <path clip-path="url(#pdf061347f4)" d="M 72 43.2 
L 518.4 43.2 
" style="fill:none;stroke:#b0b0b0;stroke-linecap:square;stroke-width:0.8;"/>
     </g>
     <g id="line2d_22">
      <g>
       <use style="stroke:#000000;stroke-width:0.8;" x="72" xlink:href="#mc9930eccb9" y="43.2"/>
      </g>
     </g>
     <g id="text_11">
      <!-- 1.0 -->
      <defs>
       <path d="M 12.40625 8.296875 
L 28.515625 8.296875 
L 28.515625 63.921875 
L 10.984375 60.40625 
L 10.984375 69.390625 
L 28.421875 72.90625 
L 38.28125 72.90625 
L 38.28125 8.296875 
L 54.390625 8.296875 
L 54.390625 0 
L 12.40625 0 
z
" id="DejaVuSans-49"/>
      </defs>
      <g transform="translate(49.096875 46.999219)scale(0.1 -0.1)">
       <use xlink:href="#DejaVuSans-49"/>
       <use x="63.623047" xlink:href="#DejaVuSans-46"/>
       <use x="95.410156" xlink:href="#DejaVuSans-48"/>
      </g>
     </g>
    </g>
   </g>
   <g id="line2d_23">
    <path clip-path="url(#pdf061347f4)" d="M 72 238.580446 
L 76.509091 284.593022 
L 81.018182 295.016309 
L 85.527273 300.60337 
L 90.036364 304.159277 
L 94.545455 306.43588 
L 99.054545 308.527465 
L 103.563636 308.918513 
L 108.072727 310.983701 
L 112.581818 310.050254 
L 117.090909 311.307324 
L 121.6 311.828702 
L 126.109091 312.698931 
L 130.618182 311.263987 
L 135.127273 312.899273 
L 139.636364 312.500085 
L 144.145455 312.093128 
L 148.654545 312.488342 
L 153.163636 313.268032 
L 157.672727 314.563593 
L 162.181818 312.090881 
L 166.690909 312.581749 
L 171.2 313.741285 
L 175.709091 312.151147 
L 180.218182 313.950181 
L 184.727273 312.855124 
L 189.236364 313.301464 
L 193.745455 313.040436 
L 198.254545 313.431066 
L 202.763636 313.837933 
L 207.272727 314.481708 
L 211.781818 312.443455 
L 216.290909 313.520638 
L 220.8 314.256616 
L 225.309091 314.551843 
L 229.818182 312.069719 
L 234.327273 313.562528 
L 238.836364 314.055882 
L 243.345455 314.019502 
L 247.854545 313.610594 
L 252.363636 313.705804 
L 256.872727 313.117341 
L 261.381818 313.514 
L 265.890909 314.101518 
L 270.4 314.517009 
L 274.909091 313.946074 
L 279.418182 313.452256 
L 283.927273 314.063471 
L 288.436364 313.259638 
L 292.945455 314.4529 
L 297.454545 313.196816 
L 301.963636 313.972971 
L 306.472727 314.388111 
L 310.981818 314.555408 
L 315.490909 314.905942 
L 320 314.98551 
L 324.509091 314.997312 
L 329.018182 314.998051 
L 333.527273 314.998447 
L 338.036364 314.998726 
L 342.545455 314.998953 
L 347.054545 314.999135 
L 351.563636 314.999286 
L 356.072727 314.999407 
L 360.581818 314.999515 
L 365.090909 314.999599 
L 369.6 314.99967 
L 374.109091 314.999729 
L 378.618182 314.999782 
L 383.127273 314.999823 
L 387.636364 314.999857 
L 392.145455 314.999885 
L 396.654545 314.999909 
L 401.163636 314.999927 
L 405.672727 314.999942 
L 410.181818 314.999953 
L 414.690909 314.999963 
L 419.2 314.99997 
L 423.709091 314.999976 
L 428.218182 314.999981 
L 432.727273 314.999985 
L 437.236364 314.999988 
L 441.745455 314.99999 
L 446.254545 314.999992 
L 450.763636 314.999994 
L 455.272727 314.999995 
L 459.781818 314.999996 
L 464.290909 314.999997 
L 468.8 314.999997 
L 473.309091 314.999998 
L 477.818182 314.999998 
L 482.327273 314.999998 
L 486.836364 314.999999 
L 491.345455 314.999999 
L 495.854545 314.999999 
L 500.363636 314.999999 
L 504.872727 314.999999 
L 509.381818 314.999999 
L 513.890909 314.999999 
L 518.4 314.999999 
" style="fill:none;stroke:#1f77b4;stroke-linecap:square;stroke-width:1.5;"/>
   </g>
   <g id="line2d_24">
    <path clip-path="url(#pdf061347f4)" d="M 72 65.44955 
L 76.509091 52.408583 
L 81.018182 49.206772 
L 85.527273 47.711883 
L 90.036364 46.537701 
L 94.545455 45.999535 
L 99.054545 45.325479 
L 103.563636 45.287424 
L 108.072727 44.488332 
L 112.581818 44.955831 
L 117.090909 44.466591 
L 121.6 44.260018 
L 126.109091 43.922982 
L 130.618182 44.417665 
L 135.127273 43.944739 
L 139.636364 44.009962 
L 144.145455 44.270888 
L 148.654545 44.064331 
L 153.163636 43.716425 
L 157.672727 43.308722 
L 162.181818 44.200221 
L 166.690909 43.961037 
L 171.2 43.575091 
L 175.709091 44.129555 
L 180.218182 43.515295 
L 184.727273 43.922982 
L 189.236364 43.700111 
L 193.745455 43.781648 
L 198.254545 43.694684 
L 202.763636 43.624001 
L 207.272727 43.352204 
L 211.781818 43.982778 
L 216.290909 43.662056 
L 220.8 43.428314 
L 225.309091 43.292408 
L 229.818182 44.124128 
L 234.327273 43.705554 
L 238.836364 43.569648 
L 243.345455 43.547907 
L 247.854545 43.656628 
L 252.363636 43.602259 
L 256.872727 43.819703 
L 261.381818 43.629444 
L 265.890909 43.48811 
L 270.4 43.368518 
L 274.909091 43.564204 
L 279.418182 43.700111 
L 283.927273 43.520722 
L 288.436364 43.732722 
L 292.945455 43.379389 
L 297.454545 43.705554 
L 301.963636 43.520722 
L 306.472727 43.384832 
L 310.981818 43.314149 
L 315.490909 43.221741 
L 320 43.2 
L 324.509091 43.2 
L 329.018182 43.2 
L 333.527273 43.2 
L 338.036364 43.2 
L 342.545455 43.2 
L 347.054545 43.2 
L 351.563636 43.2 
L 356.072727 43.2 
L 360.581818 43.2 
L 365.090909 43.2 
L 369.6 43.2 
L 374.109091 43.2 
L 378.618182 43.2 
L 383.127273 43.2 
L 387.636364 43.2 
L 392.145455 43.2 
L 396.654545 43.2 
L 401.163636 43.2 
L 405.672727 43.2 
L 410.181818 43.2 
L 414.690909 43.2 
L 419.2 43.2 
L 423.709091 43.2 
L 428.218182 43.2 
L 432.727273 43.2 
L 437.236364 43.2 
L 441.745455 43.2 
L 446.254545 43.2 
L 450.763636 43.2 
L 455.272727 43.2 
L 459.781818 43.2 
L 464.290909 43.2 
L 468.8 43.2 
L 473.309091 43.2 
L 477.818182 43.2 
L 482.327273 43.2 
L 486.836364 43.2 
L 491.345455 43.2 
L 495.854545 43.2 
L 500.363636 43.2 
L 504.872727 43.2 
L 509.381818 43.2 
L 513.890909 43.2 
L 518.4 43.2 
" style="fill:none;stroke:#ff7f0e;stroke-linecap:square;stroke-width:1.5;"/>
   </g>
   <g id="line2d_25">
    <path clip-path="url(#pdf061347f4)" d="M 72 273.833745 
L 76.509091 288.164176 
L 81.018182 291.238891 
L 85.527273 294.004792 
L 90.036364 291.549024 
L 94.545455 292.97762 
L 99.054545 291.718393 
L 103.563636 288.989713 
L 108.072727 288.784521 
L 112.581818 288.378345 
L 117.090909 291.662811 
L 121.6 290.552399 
L 126.109091 283.932574 
L 130.618182 289.55978 
L 135.127273 286.480267 
L 139.636364 289.316535 
L 144.145455 287.003338 
L 148.654545 287.286467 
L 153.163636 289.15278 
L 157.672727 287.419374 
L 162.181818 280.459536 
L 166.690909 283.429958 
L 171.2 285.051485 
L 175.709091 278.155953 
L 180.218182 284.933466 
L 184.727273 273.769891 
L 189.236364 280.498681 
L 193.745455 281.040071 
L 198.254545 277.863071 
L 202.763636 284.869666 
L 207.272727 281.210122 
L 211.781818 277.626313 
L 216.290909 281.709795 
L 220.8 282.025677 
L 225.309091 280.357169 
L 229.818182 278.226652 
L 234.327273 282.403178 
L 238.836364 278.424133 
L 243.345455 273.425759 
L 247.854545 280.403154 
L 252.363636 275.818097 
L 256.872727 277.553041 
L 261.381818 280.33642 
L 265.890909 281.51651 
L 270.4 284.161547 
L 274.909091 269.68042 
L 279.418182 279.157572 
L 283.927273 272.316058 
L 288.436364 280.390826 
L 292.945455 277.884347 
L 297.454545 271.238665 
L 301.963636 272.361152 
L 306.472727 277.519871 
L 310.981818 276.040049 
L 315.490909 277.96025 
L 320 278.952679 
L 324.509091 278.961982 
L 329.018182 278.932173 
L 333.527273 278.786842 
L 338.036364 278.703746 
L 342.545455 278.569176 
L 347.054545 278.4464 
L 351.563636 278.296825 
L 356.072727 278.148829 
L 360.581818 277.91985 
L 365.090909 277.680767 
L 369.6 277.489118 
L 374.109091 277.233024 
L 378.618182 276.933294 
L 383.127273 276.591965 
L 387.636364 276.288079 
L 392.145455 275.949674 
L 396.654545 275.595834 
L 401.163636 275.244177 
L 405.672727 274.814631 
L 410.181818 274.431363 
L 414.690909 274.10606 
L 419.2 273.664608 
L 423.709091 273.244386 
L 428.218182 272.899662 
L 432.727273 272.418932 
L 437.236364 272.018013 
L 441.745455 271.724653 
L 446.254545 271.221088 
L 450.763636 270.813575 
L 455.272727 270.379701 
L 459.781818 270.086742 
L 464.290909 269.7547 
L 468.8 269.41107 
L 473.309091 269.076541 
L 477.818182 268.735568 
L 482.327273 268.526395 
L 486.836364 268.196831 
L 491.345455 267.935561 
L 495.854545 267.742823 
L 500.363636 267.552734 
L 504.872727 267.32461 
L 509.381818 267.129147 
L 513.890909 266.926081 
L 518.4 266.798554 
" style="fill:none;stroke:#2ca02c;stroke-linecap:square;stroke-width:1.5;"/>
   </g>
   <g id="line2d_26">
    <path clip-path="url(#pdf061347f4)" d="M 72 55.594079 
L 76.509091 51.59862 
L 81.018182 50.429881 
L 85.527273 49.994994 
L 90.036364 50.185253 
L 94.545455 49.886288 
L 99.054545 49.859103 
L 103.563636 50.022178 
L 108.072727 50.103715 
L 112.581818 50.239622 
L 117.090909 49.016513 
L 121.6 49.315494 
L 126.109091 49.967825 
L 130.618182 49.15242 
L 135.127273 49.288326 
L 139.636364 48.690364 
L 144.145455 49.15242 
L 148.654545 49.043698 
L 153.163636 48.527273 
L 157.672727 48.635995 
L 162.181818 50.103715 
L 166.690909 49.614475 
L 171.2 49.478585 
L 175.709091 50.293975 
L 180.218182 49.179604 
L 184.727273 50.674493 
L 189.236364 49.098067 
L 193.745455 49.043698 
L 198.254545 49.315494 
L 202.763636 48.554457 
L 207.272727 49.233957 
L 211.781818 49.614475 
L 216.290909 48.391383 
L 220.8 48.47292 
L 225.309091 48.418567 
L 229.818182 48.907808 
L 234.327273 48.445736 
L 238.836364 48.880623 
L 243.345455 49.668844 
L 247.854545 48.282661 
L 252.363636 49.15242 
L 256.872727 48.581642 
L 261.381818 48.554457 
L 265.890909 48.418567 
L 270.4 48.065217 
L 274.909091 49.206772 
L 279.418182 48.309845 
L 283.927273 48.989345 
L 288.436364 48.119586 
L 292.945455 48.364198 
L 297.454545 48.744717 
L 301.963636 49.342679 
L 306.472727 48.500105 
L 310.981818 48.554457 
L 315.490909 48.255476 
L 320 48.146755 
L 324.509091 48.092402 
L 329.018182 48.119586 
L 333.527273 48.092402 
L 338.036364 48.092402 
L 342.545455 48.038033 
L 347.054545 48.038033 
L 351.563636 48.038033 
L 356.072727 48.038033 
L 360.581818 48.010864 
L 365.090909 48.010864 
L 369.6 48.010864 
L 374.109091 47.956495 
L 378.618182 47.98368 
L 383.127273 47.956495 
L 387.636364 47.929327 
L 392.145455 47.929327 
L 396.654545 47.902143 
L 401.163636 47.902143 
L 405.672727 47.929327 
L 410.181818 47.902143 
L 414.690909 47.874958 
L 419.2 47.902143 
L 423.709091 47.902143 
L 428.218182 47.820605 
L 432.727273 47.793421 
L 437.236364 47.793421 
L 441.745455 47.739068 
L 446.254545 47.793421 
L 450.763636 47.847774 
L 455.272727 47.766236 
L 459.781818 47.739068 
L 464.290909 47.820605 
L 468.8 47.766236 
L 473.309091 47.766236 
L 477.818182 47.766236 
L 482.327273 47.711883 
L 486.836364 47.739068 
L 491.345455 47.766236 
L 495.854545 47.766236 
L 500.363636 47.793421 
L 504.872727 47.793421 
L 509.381818 47.766236 
L 513.890909 47.739068 
L 518.4 47.766236 
" style="fill:none;stroke:#d62728;stroke-linecap:square;stroke-width:1.5;"/>
   </g>
   <g id="patch_3">
    <path d="M 72 315 
L 72 43.2 
" style="fill:none;stroke:#000000;stroke-linecap:square;stroke-linejoin:miter;stroke-width:0.8;"/>
   </g>
   <g id="patch_4">
    <path d="M 518.4 315 
L 518.4 43.2 
" style="fill:none;stroke:#000000;stroke-linecap:square;stroke-linejoin:miter;stroke-width:0.8;"/>
   </g>
   <g id="patch_5">
    <path d="M 72 315 
L 518.4 315 
" style="fill:none;stroke:#000000;stroke-linecap:square;stroke-linejoin:miter;stroke-width:0.8;"/>
   </g>
   <g id="patch_6">
    <path d="M 72 43.2 
L 518.4 43.2 
" style="fill:none;stroke:#000000;stroke-linecap:square;stroke-linejoin:miter;stroke-width:0.8;"/>
   </g>
   <g id="legend_1">
    <g id="patch_7">
     <path d="M 414.45625 110.46875 
L 511.4 110.46875 
Q 513.4 110.46875 513.4 108.46875 
L 513.4 50.2 
Q 513.4 48.2 511.4 48.2 
L 414.45625 48.2 
Q 412.45625 48.2 412.45625 50.2 
L 412.45625 108.46875 
Q 412.45625 110.46875 414.45625 110.46875 
z
" style="fill:#ffffff;opacity:0.8;stroke:#cccccc;stroke-linejoin:miter;"/>
    </g>
    <g id="line2d_27">
     <path d="M 416.45625 56.298437 
L 436.45625 56.298437 
" style="fill:none;stroke:#1f77b4;stroke-linecap:square;stroke-width:1.5;"/>
    </g>
    <g id="line2d_28"/>
    <g id="text_12">
     <!-- loss -->
     <defs>
      <path d="M 9.421875 75.984375 
L 18.40625 75.984375 
L 18.40625 0 
L 9.421875 0 
z
" id="DejaVuSans-108"/>
      <path d="M 30.609375 48.390625 
Q 23.390625 48.390625 19.1875 42.75 
Q 14.984375 37.109375 14.984375 27.296875 
Q 14.984375 17.484375 19.15625 11.84375 
Q 23.34375 6.203125 30.609375 6.203125 
Q 37.796875 6.203125 41.984375 11.859375 
Q 46.1875 17.53125 46.1875 27.296875 
Q 46.1875 37.015625 41.984375 42.703125 
Q 37.796875 48.390625 30.609375 48.390625 
z
M 30.609375 56 
Q 42.328125 56 49.015625 48.375 
Q 55.71875 40.765625 55.71875 27.296875 
Q 55.71875 13.875 49.015625 6.21875 
Q 42.328125 -1.421875 30.609375 -1.421875 
Q 18.84375 -1.421875 12.171875 6.21875 
Q 5.515625 13.875 5.515625 27.296875 
Q 5.515625 40.765625 12.171875 48.375 
Q 18.84375 56 30.609375 56 
z
" id="DejaVuSans-111"/>
      <path d="M 44.28125 53.078125 
L 44.28125 44.578125 
Q 40.484375 46.53125 36.375 47.5 
Q 32.28125 48.484375 27.875 48.484375 
Q 21.1875 48.484375 17.84375 46.4375 
Q 14.5 44.390625 14.5 40.28125 
Q 14.5 37.15625 16.890625 35.375 
Q 19.28125 33.59375 26.515625 31.984375 
L 29.59375 31.296875 
Q 39.15625 29.25 43.1875 25.515625 
Q 47.21875 21.78125 47.21875 15.09375 
Q 47.21875 7.46875 41.1875 3.015625 
Q 35.15625 -1.421875 24.609375 -1.421875 
Q 20.21875 -1.421875 15.453125 -0.5625 
Q 10.6875 0.296875 5.421875 2 
L 5.421875 11.28125 
Q 10.40625 8.6875 15.234375 7.390625 
Q 20.0625 6.109375 24.8125 6.109375 
Q 31.15625 6.109375 34.5625 8.28125 
Q 37.984375 10.453125 37.984375 14.40625 
Q 37.984375 18.0625 35.515625 20.015625 
Q 33.0625 21.96875 24.703125 23.78125 
L 21.578125 24.515625 
Q 13.234375 26.265625 9.515625 29.90625 
Q 5.8125 33.546875 5.8125 39.890625 
Q 5.8125 47.609375 11.28125 51.796875 
Q 16.75 56 26.8125 56 
Q 31.78125 56 36.171875 55.265625 
Q 40.578125 54.546875 44.28125 53.078125 
z
" id="DejaVuSans-115"/>
     </defs>
     <g transform="translate(444.45625 59.798437)scale(0.1 -0.1)">
      <use xlink:href="#DejaVuSans-108"/>
      <use x="27.783203" xlink:href="#DejaVuSans-111"/>
      <use x="88.964844" xlink:href="#DejaVuSans-115"/>
      <use x="141.064453" xlink:href="#DejaVuSans-115"/>
     </g>
    </g>
    <g id="line2d_29">
     <path d="M 416.45625 70.976562 
L 436.45625 70.976562 
" style="fill:none;stroke:#ff7f0e;stroke-linecap:square;stroke-width:1.5;"/>
    </g>
    <g id="line2d_30"/>
    <g id="text_13">
     <!-- accuracy -->
     <defs>
      <path d="M 34.28125 27.484375 
Q 23.390625 27.484375 19.1875 25 
Q 14.984375 22.515625 14.984375 16.5 
Q 14.984375 11.71875 18.140625 8.90625 
Q 21.296875 6.109375 26.703125 6.109375 
Q 34.1875 6.109375 38.703125 11.40625 
Q 43.21875 16.703125 43.21875 25.484375 
L 43.21875 27.484375 
z
M 52.203125 31.203125 
L 52.203125 0 
L 43.21875 0 
L 43.21875 8.296875 
Q 40.140625 3.328125 35.546875 0.953125 
Q 30.953125 -1.421875 24.3125 -1.421875 
Q 15.921875 -1.421875 10.953125 3.296875 
Q 6 8.015625 6 15.921875 
Q 6 25.140625 12.171875 29.828125 
Q 18.359375 34.515625 30.609375 34.515625 
L 43.21875 34.515625 
L 43.21875 35.40625 
Q 43.21875 41.609375 39.140625 45 
Q 35.0625 48.390625 27.6875 48.390625 
Q 23 48.390625 18.546875 47.265625 
Q 14.109375 46.140625 10.015625 43.890625 
L 10.015625 52.203125 
Q 14.9375 54.109375 19.578125 55.046875 
Q 24.21875 56 28.609375 56 
Q 40.484375 56 46.34375 49.84375 
Q 52.203125 43.703125 52.203125 31.203125 
z
" id="DejaVuSans-97"/>
      <path d="M 48.78125 52.59375 
L 48.78125 44.1875 
Q 44.96875 46.296875 41.140625 47.34375 
Q 37.3125 48.390625 33.40625 48.390625 
Q 24.65625 48.390625 19.8125 42.84375 
Q 14.984375 37.3125 14.984375 27.296875 
Q 14.984375 17.28125 19.8125 11.734375 
Q 24.65625 6.203125 33.40625 6.203125 
Q 37.3125 6.203125 41.140625 7.25 
Q 44.96875 8.296875 48.78125 10.40625 
L 48.78125 2.09375 
Q 45.015625 0.34375 40.984375 -0.53125 
Q 36.96875 -1.421875 32.421875 -1.421875 
Q 20.0625 -1.421875 12.78125 6.34375 
Q 5.515625 14.109375 5.515625 27.296875 
Q 5.515625 40.671875 12.859375 48.328125 
Q 20.21875 56 33.015625 56 
Q 37.15625 56 41.109375 55.140625 
Q 45.0625 54.296875 48.78125 52.59375 
z
" id="DejaVuSans-99"/>
      <path d="M 8.5 21.578125 
L 8.5 54.6875 
L 17.484375 54.6875 
L 17.484375 21.921875 
Q 17.484375 14.15625 20.5 10.265625 
Q 23.53125 6.390625 29.59375 6.390625 
Q 36.859375 6.390625 41.078125 11.03125 
Q 45.3125 15.671875 45.3125 23.6875 
L 45.3125 54.6875 
L 54.296875 54.6875 
L 54.296875 0 
L 45.3125 0 
L 45.3125 8.40625 
Q 42.046875 3.421875 37.71875 1 
Q 33.40625 -1.421875 27.6875 -1.421875 
Q 18.265625 -1.421875 13.375 4.4375 
Q 8.5 10.296875 8.5 21.578125 
z
M 31.109375 56 
z
" id="DejaVuSans-117"/>
      <path d="M 41.109375 46.296875 
Q 39.59375 47.171875 37.8125 47.578125 
Q 36.03125 48 33.890625 48 
Q 26.265625 48 22.1875 43.046875 
Q 18.109375 38.09375 18.109375 28.8125 
L 18.109375 0 
L 9.078125 0 
L 9.078125 54.6875 
L 18.109375 54.6875 
L 18.109375 46.1875 
Q 20.953125 51.171875 25.484375 53.578125 
Q 30.03125 56 36.53125 56 
Q 37.453125 56 38.578125 55.875 
Q 39.703125 55.765625 41.0625 55.515625 
z
" id="DejaVuSans-114"/>
      <path d="M 32.171875 -5.078125 
Q 28.375 -14.84375 24.75 -17.8125 
Q 21.140625 -20.796875 15.09375 -20.796875 
L 7.90625 -20.796875 
L 7.90625 -13.28125 
L 13.1875 -13.28125 
Q 16.890625 -13.28125 18.9375 -11.515625 
Q 21 -9.765625 23.484375 -3.21875 
L 25.09375 0.875 
L 2.984375 54.6875 
L 12.5 54.6875 
L 29.59375 11.921875 
L 46.6875 54.6875 
L 56.203125 54.6875 
z
" id="DejaVuSans-121"/>
     </defs>
     <g transform="translate(444.45625 74.476562)scale(0.1 -0.1)">
      <use xlink:href="#DejaVuSans-97"/>
      <use x="61.279297" xlink:href="#DejaVuSans-99"/>
      <use x="116.259766" xlink:href="#DejaVuSans-99"/>
      <use x="171.240234" xlink:href="#DejaVuSans-117"/>
      <use x="234.619141" xlink:href="#DejaVuSans-114"/>
      <use x="275.732422" xlink:href="#DejaVuSans-97"/>
      <use x="337.011719" xlink:href="#DejaVuSans-99"/>
      <use x="391.992188" xlink:href="#DejaVuSans-121"/>
     </g>
    </g>
    <g id="line2d_31">
     <path d="M 416.45625 85.654687 
L 436.45625 85.654687 
" style="fill:none;stroke:#2ca02c;stroke-linecap:square;stroke-width:1.5;"/>
    </g>
    <g id="line2d_32"/>
    <g id="text_14">
     <!-- val_loss -->
     <defs>
      <path d="M 2.984375 54.6875 
L 12.5 54.6875 
L 29.59375 8.796875 
L 46.6875 54.6875 
L 56.203125 54.6875 
L 35.6875 0 
L 23.484375 0 
z
" id="DejaVuSans-118"/>
      <path d="M 50.984375 -16.609375 
L 50.984375 -23.578125 
L -0.984375 -23.578125 
L -0.984375 -16.609375 
z
" id="DejaVuSans-95"/>
     </defs>
     <g transform="translate(444.45625 89.154687)scale(0.1 -0.1)">
      <use xlink:href="#DejaVuSans-118"/>
      <use x="59.179688" xlink:href="#DejaVuSans-97"/>
      <use x="120.458984" xlink:href="#DejaVuSans-108"/>
      <use x="148.242188" xlink:href="#DejaVuSans-95"/>
      <use x="198.242188" xlink:href="#DejaVuSans-108"/>
      <use x="226.025391" xlink:href="#DejaVuSans-111"/>
      <use x="287.207031" xlink:href="#DejaVuSans-115"/>
      <use x="339.306641" xlink:href="#DejaVuSans-115"/>
     </g>
    </g>
    <g id="line2d_33">
     <path d="M 416.45625 100.610937 
L 436.45625 100.610937 
" style="fill:none;stroke:#d62728;stroke-linecap:square;stroke-width:1.5;"/>
    </g>
    <g id="line2d_34"/>
    <g id="text_15">
     <!-- val_accuracy -->
     <g transform="translate(444.45625 104.110937)scale(0.1 -0.1)">
      <use xlink:href="#DejaVuSans-118"/>
      <use x="59.179688" xlink:href="#DejaVuSans-97"/>
      <use x="120.458984" xlink:href="#DejaVuSans-108"/>
      <use x="148.242188" xlink:href="#DejaVuSans-95"/>
      <use x="198.242188" xlink:href="#DejaVuSans-97"/>
      <use x="259.521484" xlink:href="#DejaVuSans-99"/>
      <use x="314.501953" xlink:href="#DejaVuSans-99"/>
      <use x="369.482422" xlink:href="#DejaVuSans-117"/>
      <use x="432.861328" xlink:href="#DejaVuSans-114"/>
      <use x="473.974609" xlink:href="#DejaVuSans-97"/>
      <use x="535.253906" xlink:href="#DejaVuSans-99"/>
      <use x="590.234375" xlink:href="#DejaVuSans-121"/>
     </g>
    </g>
   </g>
  </g>
 </g>
 <defs>
  <clipPath id="pdf061347f4">
   <rect height="271.8" width="446.4" x="72" y="43.2"/>
  </clipPath>
 </defs>
</svg>
