<?xml version="1.0" encoding="utf-8" standalone="no"?>
<!DOCTYPE svg PUBLIC "-//W3C//DTD SVG 1.1//EN"
  "http://www.w3.org/Graphics/SVG/1.1/DTD/svg11.dtd">
<!-- Created with matplotlib (https://matplotlib.org/) -->
<svg height="360pt" version="1.1" viewBox="0 0 576 360" width="576pt" xmlns="http://www.w3.org/2000/svg" xmlns:xlink="http://www.w3.org/1999/xlink">
 <defs>
  <style type="text/css">
*{stroke-linecap:butt;stroke-linejoin:round;}
  </style>
 </defs>
 <g id="figure_1">
  <g id="patch_1">
   <path d="M 0 360 
L 576 360 
L 576 0 
L 0 0 
z
" style="fill:#ffffff;"/>
  </g>
  <g id="axes_1">
   <g id="patch_2">
    <path d="M 72 315 
L 518.4 315 
L 518.4 43.2 
L 72 43.2 
z
" style="fill:#ffffff;"/>
   </g>
   <g id="matplotlib.axis_1">
    <g id="xtick_1">
     <g id="line2d_1">
      <path clip-path="url(#pfbb6b28283)" d="M 72 315 
L 72 43.2 
" style="fill:none;stroke:#b0b0b0;stroke-linecap:square;stroke-width:0.8;"/>
     </g>
     <g id="line2d_2">
      <defs>
       <path d="M 0 0 
L 0 3.5 
" id="md2664d7110" style="stroke:#000000;stroke-width:0.8;"/>
      </defs>
      <g>
       <use style="stroke:#000000;stroke-width:0.8;" x="72" xlink:href="#md2664d7110" y="315"/>
      </g>
     </g>
     <g id="text_1">
      <!-- 0 -->
      <defs>
       <path d="M 31.78125 66.40625 
Q 24.171875 66.40625 20.328125 58.90625 
Q 16.5 51.421875 16.5 36.375 
Q 16.5 21.390625 20.328125 13.890625 
Q 24.171875 6.390625 31.78125 6.390625 
Q 39.453125 6.390625 43.28125 13.890625 
Q 47.125 21.390625 47.125 36.375 
Q 47.125 51.421875 43.28125 58.90625 
Q 39.453125 66.40625 31.78125 66.40625 
z
M 31.78125 74.21875 
Q 44.046875 74.21875 50.515625 64.515625 
Q 56.984375 54.828125 56.984375 36.375 
Q 56.984375 17.96875 50.515625 8.265625 
Q 44.046875 -1.421875 31.78125 -1.421875 
Q 19.53125 -1.421875 13.0625 8.265625 
Q 6.59375 17.96875 6.59375 36.375 
Q 6.59375 54.828125 13.0625 64.515625 
Q 19.53125 74.21875 31.78125 74.21875 
z
" id="DejaVuSans-48"/>
      </defs>
      <g transform="translate(68.81875 329.598437)scale(0.1 -0.1)">
       <use xlink:href="#DejaVuSans-48"/>
      </g>
     </g>
    </g>
    <g id="xtick_2">
     <g id="line2d_3">
      <path clip-path="url(#pfbb6b28283)" d="M 162.181818 315 
L 162.181818 43.2 
" style="fill:none;stroke:#b0b0b0;stroke-linecap:square;stroke-width:0.8;"/>
     </g>
     <g id="line2d_4">
      <g>
       <use style="stroke:#000000;stroke-width:0.8;" x="162.181818" xlink:href="#md2664d7110" y="315"/>
      </g>
     </g>
     <g id="text_2">
      <!-- 20 -->
      <defs>
       <path d="M 19.1875 8.296875 
L 53.609375 8.296875 
L 53.609375 0 
L 7.328125 0 
L 7.328125 8.296875 
Q 12.9375 14.109375 22.625 23.890625 
Q 32.328125 33.6875 34.8125 36.53125 
Q 39.546875 41.84375 41.421875 45.53125 
Q 43.3125 49.21875 43.3125 52.78125 
Q 43.3125 58.59375 39.234375 62.25 
Q 35.15625 65.921875 28.609375 65.921875 
Q 23.96875 65.921875 18.8125 64.3125 
Q 13.671875 62.703125 7.8125 59.421875 
L 7.8125 69.390625 
Q 13.765625 71.78125 18.9375 73 
Q 24.125 74.21875 28.421875 74.21875 
Q 39.75 74.21875 46.484375 68.546875 
Q 53.21875 62.890625 53.21875 53.421875 
Q 53.21875 48.921875 51.53125 44.890625 
Q 49.859375 40.875 45.40625 35.40625 
Q 44.1875 33.984375 37.640625 27.21875 
Q 31.109375 20.453125 19.1875 8.296875 
z
" id="DejaVuSans-50"/>
      </defs>
      <g transform="translate(155.819318 329.598437)scale(0.1 -0.1)">
       <use xlink:href="#DejaVuSans-50"/>
       <use x="63.623047" xlink:href="#DejaVuSans-48"/>
      </g>
     </g>
    </g>
    <g id="xtick_3">
     <g id="line2d_5">
      <path clip-path="url(#pfbb6b28283)" d="M 252.363636 315 
L 252.363636 43.2 
" style="fill:none;stroke:#b0b0b0;stroke-linecap:square;stroke-width:0.8;"/>
     </g>
     <g id="line2d_6">
      <g>
       <use style="stroke:#000000;stroke-width:0.8;" x="252.363636" xlink:href="#md2664d7110" y="315"/>
      </g>
     </g>
     <g id="text_3">
      <!-- 40 -->
      <defs>
       <path d="M 37.796875 64.3125 
L 12.890625 25.390625 
L 37.796875 25.390625 
z
M 35.203125 72.90625 
L 47.609375 72.90625 
L 47.609375 25.390625 
L 58.015625 25.390625 
L 58.015625 17.1875 
L 47.609375 17.1875 
L 47.609375 0 
L 37.796875 0 
L 37.796875 17.1875 
L 4.890625 17.1875 
L 4.890625 26.703125 
z
" id="DejaVuSans-52"/>
      </defs>
      <g transform="translate(246.001136 329.598437)scale(0.1 -0.1)">
       <use xlink:href="#DejaVuSans-52"/>
       <use x="63.623047" xlink:href="#DejaVuSans-48"/>
      </g>
     </g>
    </g>
    <g id="xtick_4">
     <g id="line2d_7">
      <path clip-path="url(#pfbb6b28283)" d="M 342.545455 315 
L 342.545455 43.2 
" style="fill:none;stroke:#b0b0b0;stroke-linecap:square;stroke-width:0.8;"/>
     </g>
     <g id="line2d_8">
      <g>
       <use style="stroke:#000000;stroke-width:0.8;" x="342.545455" xlink:href="#md2664d7110" y="315"/>
      </g>
     </g>
     <g id="text_4">
      <!-- 60 -->
      <defs>
       <path d="M 33.015625 40.375 
Q 26.375 40.375 22.484375 35.828125 
Q 18.609375 31.296875 18.609375 23.390625 
Q 18.609375 15.53125 22.484375 10.953125 
Q 26.375 6.390625 33.015625 6.390625 
Q 39.65625 6.390625 43.53125 10.953125 
Q 47.40625 15.53125 47.40625 23.390625 
Q 47.40625 31.296875 43.53125 35.828125 
Q 39.65625 40.375 33.015625 40.375 
z
M 52.59375 71.296875 
L 52.59375 62.3125 
Q 48.875 64.0625 45.09375 64.984375 
Q 41.3125 65.921875 37.59375 65.921875 
Q 27.828125 65.921875 22.671875 59.328125 
Q 17.53125 52.734375 16.796875 39.40625 
Q 19.671875 43.65625 24.015625 45.921875 
Q 28.375 48.1875 33.59375 48.1875 
Q 44.578125 48.1875 50.953125 41.515625 
Q 57.328125 34.859375 57.328125 23.390625 
Q 57.328125 12.15625 50.6875 5.359375 
Q 44.046875 -1.421875 33.015625 -1.421875 
Q 20.359375 -1.421875 13.671875 8.265625 
Q 6.984375 17.96875 6.984375 36.375 
Q 6.984375 53.65625 15.1875 63.9375 
Q 23.390625 74.21875 37.203125 74.21875 
Q 40.921875 74.21875 44.703125 73.484375 
Q 48.484375 72.75 52.59375 71.296875 
z
" id="DejaVuSans-54"/>
      </defs>
      <g transform="translate(336.182955 329.598437)scale(0.1 -0.1)">
       <use xlink:href="#DejaVuSans-54"/>
       <use x="63.623047" xlink:href="#DejaVuSans-48"/>
      </g>
     </g>
    </g>
    <g id="xtick_5">
     <g id="line2d_9">
      <path clip-path="url(#pfbb6b28283)" d="M 432.727273 315 
L 432.727273 43.2 
" style="fill:none;stroke:#b0b0b0;stroke-linecap:square;stroke-width:0.8;"/>
     </g>
     <g id="line2d_10">
      <g>
       <use style="stroke:#000000;stroke-width:0.8;" x="432.727273" xlink:href="#md2664d7110" y="315"/>
      </g>
     </g>
     <g id="text_5">
      <!-- 80 -->
      <defs>
       <path d="M 31.78125 34.625 
Q 24.75 34.625 20.71875 30.859375 
Q 16.703125 27.09375 16.703125 20.515625 
Q 16.703125 13.921875 20.71875 10.15625 
Q 24.75 6.390625 31.78125 6.390625 
Q 38.8125 6.390625 42.859375 10.171875 
Q 46.921875 13.96875 46.921875 20.515625 
Q 46.921875 27.09375 42.890625 30.859375 
Q 38.875 34.625 31.78125 34.625 
z
M 21.921875 38.8125 
Q 15.578125 40.375 12.03125 44.71875 
Q 8.5 49.078125 8.5 55.328125 
Q 8.5 64.0625 14.71875 69.140625 
Q 20.953125 74.21875 31.78125 74.21875 
Q 42.671875 74.21875 48.875 69.140625 
Q 55.078125 64.0625 55.078125 55.328125 
Q 55.078125 49.078125 51.53125 44.71875 
Q 48 40.375 41.703125 38.8125 
Q 48.828125 37.15625 52.796875 32.3125 
Q 56.78125 27.484375 56.78125 20.515625 
Q 56.78125 9.90625 50.3125 4.234375 
Q 43.84375 -1.421875 31.78125 -1.421875 
Q 19.734375 -1.421875 13.25 4.234375 
Q 6.78125 9.90625 6.78125 20.515625 
Q 6.78125 27.484375 10.78125 32.3125 
Q 14.796875 37.15625 21.921875 38.8125 
z
M 18.3125 54.390625 
Q 18.3125 48.734375 21.84375 45.5625 
Q 25.390625 42.390625 31.78125 42.390625 
Q 38.140625 42.390625 41.71875 45.5625 
Q 45.3125 48.734375 45.3125 54.390625 
Q 45.3125 60.0625 41.71875 63.234375 
Q 38.140625 66.40625 31.78125 66.40625 
Q 25.390625 66.40625 21.84375 63.234375 
Q 18.3125 60.0625 18.3125 54.390625 
z
" id="DejaVuSans-56"/>
      </defs>
      <g transform="translate(426.364773 329.598437)scale(0.1 -0.1)">
       <use xlink:href="#DejaVuSans-56"/>
       <use x="63.623047" xlink:href="#DejaVuSans-48"/>
      </g>
     </g>
    </g>
   </g>
   <g id="matplotlib.axis_2">
    <g id="ytick_1">
     <g id="line2d_11">
      <path clip-path="url(#pfbb6b28283)" d="M 72 315 
L 518.4 315 
" style="fill:none;stroke:#b0b0b0;stroke-linecap:square;stroke-width:0.8;"/>
     </g>
     <g id="line2d_12">
      <defs>
       <path d="M 0 0 
L -3.5 0 
" id="md4e114d1ab" style="stroke:#000000;stroke-width:0.8;"/>
      </defs>
      <g>
       <use style="stroke:#000000;stroke-width:0.8;" x="72" xlink:href="#md4e114d1ab" y="315"/>
      </g>
     </g>
     <g id="text_6">
      <!-- 0.0 -->
      <defs>
       <path d="M 10.6875 12.40625 
L 21 12.40625 
L 21 0 
L 10.6875 0 
z
" id="DejaVuSans-46"/>
      </defs>
      <g transform="translate(49.096875 318.799219)scale(0.1 -0.1)">
       <use xlink:href="#DejaVuSans-48"/>
       <use x="63.623047" xlink:href="#DejaVuSans-46"/>
       <use x="95.410156" xlink:href="#DejaVuSans-48"/>
      </g>
     </g>
    </g>
    <g id="ytick_2">
     <g id="line2d_13">
      <path clip-path="url(#pfbb6b28283)" d="M 72 260.64 
L 518.4 260.64 
" style="fill:none;stroke:#b0b0b0;stroke-linecap:square;stroke-width:0.8;"/>
     </g>
     <g id="line2d_14">
      <g>
       <use style="stroke:#000000;stroke-width:0.8;" x="72" xlink:href="#md4e114d1ab" y="260.64"/>
      </g>
     </g>
     <g id="text_7">
      <!-- 0.2 -->
      <g transform="translate(49.096875 264.439219)scale(0.1 -0.1)">
       <use xlink:href="#DejaVuSans-48"/>
       <use x="63.623047" xlink:href="#DejaVuSans-46"/>
       <use x="95.410156" xlink:href="#DejaVuSans-50"/>
      </g>
     </g>
    </g>
    <g id="ytick_3">
     <g id="line2d_15">
      <path clip-path="url(#pfbb6b28283)" d="M 72 206.28 
L 518.4 206.28 
" style="fill:none;stroke:#b0b0b0;stroke-linecap:square;stroke-width:0.8;"/>
     </g>
     <g id="line2d_16">
      <g>
       <use style="stroke:#000000;stroke-width:0.8;" x="72" xlink:href="#md4e114d1ab" y="206.28"/>
      </g>
     </g>
     <g id="text_8">
      <!-- 0.4 -->
      <g transform="translate(49.096875 210.079219)scale(0.1 -0.1)">
       <use xlink:href="#DejaVuSans-48"/>
       <use x="63.623047" xlink:href="#DejaVuSans-46"/>
       <use x="95.410156" xlink:href="#DejaVuSans-52"/>
      </g>
     </g>
    </g>
    <g id="ytick_4">
     <g id="line2d_17">
      <path clip-path="url(#pfbb6b28283)" d="M 72 151.92 
L 518.4 151.92 
" style="fill:none;stroke:#b0b0b0;stroke-linecap:square;stroke-width:0.8;"/>
     </g>
     <g id="line2d_18">
      <g>
       <use style="stroke:#000000;stroke-width:0.8;" x="72" xlink:href="#md4e114d1ab" y="151.92"/>
      </g>
     </g>
     <g id="text_9">
      <!-- 0.6 -->
      <g transform="translate(49.096875 155.719219)scale(0.1 -0.1)">
       <use xlink:href="#DejaVuSans-48"/>
       <use x="63.623047" xlink:href="#DejaVuSans-46"/>
       <use x="95.410156" xlink:href="#DejaVuSans-54"/>
      </g>
     </g>
    </g>
    <g id="ytick_5">
     <g id="line2d_19">
      <path clip-path="url(#pfbb6b28283)" d="M 72 97.56 
L 518.4 97.56 
" style="fill:none;stroke:#b0b0b0;stroke-linecap:square;stroke-width:0.8;"/>
     </g>
     <g id="line2d_20">
      <g>
       <use style="stroke:#000000;stroke-width:0.8;" x="72" xlink:href="#md4e114d1ab" y="97.56"/>
      </g>
     </g>
     <g id="text_10">
      <!-- 0.8 -->
      <g transform="translate(49.096875 101.359219)scale(0.1 -0.1)">
       <use xlink:href="#DejaVuSans-48"/>
       <use x="63.623047" xlink:href="#DejaVuSans-46"/>
       <use x="95.410156" xlink:href="#DejaVuSans-56"/>
      </g>
     </g>
    </g>
    <g id="ytick_6">
     <g id="line2d_21">
      <path clip-path="url(#pfbb6b28283)" d="M 72 43.2 
L 518.4 43.2 
" style="fill:none;stroke:#b0b0b0;stroke-linecap:square;stroke-width:0.8;"/>
     </g>
     <g id="line2d_22">
      <g>
       <use style="stroke:#000000;stroke-width:0.8;" x="72" xlink:href="#md4e114d1ab" y="43.2"/>
      </g>
     </g>
     <g id="text_11">
      <!-- 1.0 -->
      <defs>
       <path d="M 12.40625 8.296875 
L 28.515625 8.296875 
L 28.515625 63.921875 
L 10.984375 60.40625 
L 10.984375 69.390625 
L 28.421875 72.90625 
L 38.28125 72.90625 
L 38.28125 8.296875 
L 54.390625 8.296875 
L 54.390625 0 
L 12.40625 0 
z
" id="DejaVuSans-49"/>
      </defs>
      <g transform="translate(49.096875 46.999219)scale(0.1 -0.1)">
       <use xlink:href="#DejaVuSans-49"/>
       <use x="63.623047" xlink:href="#DejaVuSans-46"/>
       <use x="95.410156" xlink:href="#DejaVuSans-48"/>
      </g>
     </g>
    </g>
   </g>
   <g id="line2d_23">
    <path clip-path="url(#pfbb6b28283)" d="M 72 216.442736 
L 76.509091 274.038621 
L 81.018182 286.401873 
L 85.527273 293.490989 
L 90.036364 297.186293 
L 94.545455 301.244921 
L 99.054545 303.140033 
L 103.563636 305.497979 
L 108.072727 307.430586 
L 112.581818 308.595569 
L 117.090909 309.082017 
L 121.6 310.341854 
L 126.109091 311.163689 
L 130.618182 311.721476 
L 135.127273 311.695574 
L 139.636364 312.240553 
L 144.145455 311.601922 
L 148.654545 312.533292 
L 153.163636 313.220179 
L 157.672727 312.851873 
L 162.181818 312.174254 
L 166.690909 313.955684 
L 171.2 313.219763 
L 175.709091 313.088396 
L 180.218182 313.262637 
L 184.727273 312.964087 
L 189.236364 313.383654 
L 193.745455 313.692004 
L 198.254545 313.262328 
L 202.763636 314.439362 
L 207.272727 313.88592 
L 211.781818 311.853544 
L 216.290909 314.252227 
L 220.8 314.82922 
L 225.309091 312.697842 
L 229.818182 313.024084 
L 234.327273 314.191848 
L 238.836364 314.359049 
L 243.345455 313.816369 
L 247.854545 313.032983 
L 252.363636 313.989499 
L 256.872727 313.836957 
L 261.381818 313.136053 
L 265.890909 314.814887 
L 270.4 314.966897 
L 274.909091 314.981478 
L 279.418182 314.98602 
L 283.927273 314.988313 
L 288.436364 314.99015 
L 292.945455 314.991404 
L 297.454545 314.992543 
L 301.963636 314.993758 
L 306.472727 314.994571 
L 310.981818 314.995468 
L 315.490909 314.996065 
L 320 314.996756 
L 324.509091 307.369323 
L 329.018182 313.17269 
L 333.527273 314.524365 
L 338.036364 314.942917 
L 342.545455 314.97832 
L 347.054545 314.98504 
L 351.563636 314.987971 
L 356.072727 314.989885 
L 360.581818 314.991466 
L 365.090909 314.992824 
L 369.6 314.993848 
L 374.109091 314.994834 
L 378.618182 314.995609 
L 383.127273 314.996341 
L 387.636364 314.996904 
L 392.145455 314.997337 
L 396.654545 314.997852 
L 401.163636 314.998197 
L 405.672727 314.998471 
L 410.181818 309.692354 
L 414.690909 311.86027 
L 419.2 313.950434 
L 423.709091 314.506544 
L 428.218182 314.962501 
L 432.727273 314.985676 
L 437.236364 314.989753 
L 441.745455 314.991524 
L 446.254545 314.992854 
L 450.763636 314.993969 
L 455.272727 314.99488 
L 459.781818 314.995665 
L 464.290909 314.99627 
L 468.8 314.996894 
L 473.309091 314.997383 
L 477.818182 314.997792 
L 482.327273 314.998158 
L 486.836364 314.998441 
L 491.345455 314.99868 
L 495.854545 314.998954 
L 500.363636 314.999132 
L 504.872727 314.999287 
L 509.381818 314.999424 
L 513.890909 314.999535 
L 518.4 314.999613 
" style="fill:none;stroke:#1f77b4;stroke-linecap:square;stroke-width:1.5;"/>
   </g>
   <g id="line2d_24">
    <path clip-path="url(#pfbb6b28283)" d="M 72 70.564822 
L 76.509091 55.170079 
L 81.018182 51.810621 
L 85.527273 49.679715 
L 90.036364 48.739289 
L 94.545455 47.434644 
L 99.054545 46.847552 
L 103.563636 46.124571 
L 108.072727 45.428757 
L 112.581818 45.124349 
L 117.090909 45.010184 
L 121.6 44.59161 
L 126.109091 44.390481 
L 130.618182 44.156739 
L 135.127273 44.24372 
L 139.636364 44.048017 
L 144.145455 44.363296 
L 148.654545 44.058888 
L 153.163636 43.716425 
L 157.672727 43.922982 
L 162.181818 44.162166 
L 166.690909 43.455499 
L 171.2 43.749036 
L 175.709091 43.836017 
L 180.218182 43.743593 
L 184.727273 43.879499 
L 189.236364 43.683797 
L 193.745455 43.656628 
L 198.254545 43.75448 
L 202.763636 43.335906 
L 207.272727 43.515295 
L 211.781818 44.254591 
L 216.290909 43.450055 
L 220.8 43.227185 
L 225.309091 44.015406 
L 229.818182 43.933852 
L 234.327273 43.471797 
L 238.836364 43.384832 
L 243.345455 43.591389 
L 247.854545 43.836017 
L 252.363636 43.547907 
L 256.872727 43.585962 
L 261.381818 43.749036 
L 265.890909 43.243482 
L 270.4 43.2 
L 274.909091 43.2 
L 279.418182 43.2 
L 283.927273 43.2 
L 288.436364 43.2 
L 292.945455 43.2 
L 297.454545 43.2 
L 301.963636 43.2 
L 306.472727 43.2 
L 310.981818 43.2 
L 315.490909 43.2 
L 320 43.2 
L 324.509091 44.961258 
L 329.018182 43.884943 
L 333.527273 43.363075 
L 338.036364 43.205443 
L 342.545455 43.2 
L 347.054545 43.2 
L 351.563636 43.2 
L 356.072727 43.2 
L 360.581818 43.2 
L 365.090909 43.2 
L 369.6 43.2 
L 374.109091 43.2 
L 378.618182 43.2 
L 383.127273 43.2 
L 387.636364 43.2 
L 392.145455 43.2 
L 396.654545 43.2 
L 401.163636 43.2 
L 405.672727 43.2 
L 410.181818 44.319814 
L 414.690909 44.086072 
L 419.2 43.596832 
L 423.709091 43.363075 
L 428.218182 43.2 
L 432.727273 43.2 
L 437.236364 43.2 
L 441.745455 43.2 
L 446.254545 43.2 
L 450.763636 43.2 
L 455.272727 43.2 
L 459.781818 43.2 
L 464.290909 43.2 
L 468.8 43.2 
L 473.309091 43.2 
L 477.818182 43.2 
L 482.327273 43.2 
L 486.836364 43.2 
L 491.345455 43.2 
L 495.854545 43.2 
L 500.363636 43.2 
L 504.872727 43.2 
L 509.381818 43.2 
L 513.890909 43.2 
L 518.4 43.2 
" style="fill:none;stroke:#ff7f0e;stroke-linecap:square;stroke-width:1.5;"/>
   </g>
   <g id="line2d_25">
    <path clip-path="url(#pfbb6b28283)" d="M 72 262.488445 
L 76.509091 280.387059 
L 81.018182 284.861965 
L 85.527273 288.907218 
L 90.036364 292.009907 
L 94.545455 292.679332 
L 99.054545 292.460054 
L 103.563636 293.734137 
L 108.072727 292.509332 
L 112.581818 293.773164 
L 117.090909 291.495516 
L 121.6 291.723249 
L 126.109091 290.925068 
L 130.618182 287.508475 
L 135.127273 290.054842 
L 139.636364 289.178699 
L 144.145455 287.62472 
L 148.654545 285.973492 
L 153.163636 287.79694 
L 157.672727 285.000951 
L 162.181818 285.965669 
L 166.690909 287.07131 
L 171.2 284.272387 
L 175.709091 282.864361 
L 180.218182 280.71772 
L 184.727273 281.461483 
L 189.236364 283.895183 
L 193.745455 281.349418 
L 198.254545 274.625664 
L 202.763636 283.216895 
L 207.272727 275.188913 
L 211.781818 281.965405 
L 216.290909 282.780697 
L 220.8 282.578735 
L 225.309091 278.308485 
L 229.818182 274.652962 
L 234.327273 276.212758 
L 238.836364 273.94414 
L 243.345455 275.467708 
L 247.854545 276.862331 
L 252.363636 279.438282 
L 256.872727 272.336933 
L 261.381818 274.6008 
L 265.890909 278.116889 
L 270.4 278.822654 
L 274.909091 278.461495 
L 279.418182 278.192513 
L 283.927273 278.168962 
L 288.436364 277.928955 
L 292.945455 277.744576 
L 297.454545 277.244976 
L 301.963636 277.305445 
L 306.472727 276.865677 
L 310.981818 276.363294 
L 315.490909 276.286596 
L 320 275.911396 
L 324.509091 274.695865 
L 329.018182 272.610426 
L 333.527273 274.93311 
L 338.036364 276.244503 
L 342.545455 277.172592 
L 347.054545 276.77872 
L 351.563636 276.490829 
L 356.072727 276.388591 
L 360.581818 275.991346 
L 365.090909 275.725288 
L 369.6 275.233788 
L 374.109091 275.136945 
L 378.618182 274.755135 
L 383.127273 274.460893 
L 387.636364 274.060269 
L 392.145455 273.578259 
L 396.654545 272.970034 
L 401.163636 272.558098 
L 405.672727 272.182525 
L 410.181818 264.249711 
L 414.690909 272.294556 
L 419.2 272.689865 
L 423.709091 275.176353 
L 428.218182 275.545981 
L 432.727273 275.560359 
L 437.236364 275.3094 
L 441.745455 275.152085 
L 446.254545 274.90934 
L 450.763636 274.543924 
L 455.272727 274.476429 
L 459.781818 274.205969 
L 464.290909 273.879232 
L 468.8 273.399469 
L 473.309091 273.2342 
L 477.818182 272.720177 
L 482.327273 272.364121 
L 486.836364 272.373226 
L 491.345455 271.661046 
L 495.854545 271.109017 
L 500.363636 270.729 
L 504.872727 270.167899 
L 509.381818 269.908402 
L 513.890909 269.166511 
L 518.4 268.826275 
" style="fill:none;stroke:#2ca02c;stroke-linecap:square;stroke-width:1.5;"/>
   </g>
   <g id="line2d_26">
    <path clip-path="url(#pfbb6b28283)" d="M 72 58.067465 
L 76.509091 53.582766 
L 81.018182 52.76736 
L 85.527273 51.272455 
L 90.036364 50.457065 
L 94.545455 50.239622 
L 99.054545 49.831919 
L 103.563636 49.64166 
L 108.072727 50.022178 
L 112.581818 49.369863 
L 117.090909 49.668844 
L 121.6 49.369863 
L 126.109091 49.369863 
L 130.618182 49.967825 
L 135.127273 49.696013 
L 139.636364 49.587307 
L 144.145455 49.451401 
L 148.654545 49.804734 
L 153.163636 49.560122 
L 157.672727 49.560122 
L 162.181818 49.64166 
L 166.690909 48.989345 
L 171.2 49.505753 
L 175.709091 49.261141 
L 180.218182 49.451401 
L 184.727273 49.668844 
L 189.236364 49.098067 
L 193.745455 49.777566 
L 198.254545 50.158084 
L 202.763636 48.934976 
L 207.272727 50.293975 
L 211.781818 48.853438 
L 216.290909 48.853438 
L 220.8 48.799086 
L 225.309091 49.478585 
L 229.818182 49.614475 
L 234.327273 49.233957 
L 238.836364 49.614475 
L 243.345455 49.913456 
L 247.854545 49.532938 
L 252.363636 49.043698 
L 256.872727 50.076547 
L 261.381818 49.233957 
L 265.890909 48.826254 
L 270.4 48.907808 
L 274.909091 48.934976 
L 279.418182 48.826254 
L 283.927273 48.799086 
L 288.436364 48.717532 
L 292.945455 48.717532 
L 297.454545 48.717532 
L 301.963636 48.581642 
L 306.472727 48.527273 
L 310.981818 48.581642 
L 315.490909 48.445736 
L 320 48.581642 
L 324.509091 49.723197 
L 329.018182 49.64166 
L 333.527273 48.880623 
L 338.036364 48.771901 
L 342.545455 48.663179 
L 347.054545 48.527273 
L 351.563636 48.608827 
L 356.072727 48.47292 
L 360.581818 48.554457 
L 365.090909 48.500105 
L 369.6 48.635995 
L 374.109091 48.581642 
L 378.618182 48.608827 
L 383.127273 48.581642 
L 387.636364 48.554457 
L 392.145455 48.500105 
L 396.654545 48.47292 
L 401.163636 48.418567 
L 405.672727 48.527273 
L 410.181818 51.055027 
L 414.690909 49.723197 
L 419.2 49.505753 
L 423.709091 49.016513 
L 428.218182 48.96216 
L 432.727273 49.070882 
L 437.236364 49.043698 
L 441.745455 48.907808 
L 446.254545 49.016513 
L 450.763636 48.96216 
L 455.272727 48.853438 
L 459.781818 48.826254 
L 464.290909 48.744717 
L 468.8 48.717532 
L 473.309091 48.581642 
L 477.818182 48.663179 
L 482.327273 48.608827 
L 486.836364 48.500105 
L 491.345455 48.527273 
L 495.854545 48.500105 
L 500.363636 48.554457 
L 504.872727 48.445736 
L 509.381818 48.47292 
L 513.890909 48.635995 
L 518.4 48.47292 
" style="fill:none;stroke:#d62728;stroke-linecap:square;stroke-width:1.5;"/>
   </g>
   <g id="patch_3">
    <path d="M 72 315 
L 72 43.2 
" style="fill:none;stroke:#000000;stroke-linecap:square;stroke-linejoin:miter;stroke-width:0.8;"/>
   </g>
   <g id="patch_4">
    <path d="M 518.4 315 
L 518.4 43.2 
" style="fill:none;stroke:#000000;stroke-linecap:square;stroke-linejoin:miter;stroke-width:0.8;"/>
   </g>
   <g id="patch_5">
    <path d="M 72 315 
L 518.4 315 
" style="fill:none;stroke:#000000;stroke-linecap:square;stroke-linejoin:miter;stroke-width:0.8;"/>
   </g>
   <g id="patch_6">
    <path d="M 72 43.2 
L 518.4 43.2 
" style="fill:none;stroke:#000000;stroke-linecap:square;stroke-linejoin:miter;stroke-width:0.8;"/>
   </g>
   <g id="legend_1">
    <g id="patch_7">
     <path d="M 414.45625 210.234375 
L 511.4 210.234375 
Q 513.4 210.234375 513.4 208.234375 
L 513.4 149.965625 
Q 513.4 147.965625 511.4 147.965625 
L 414.45625 147.965625 
Q 412.45625 147.965625 412.45625 149.965625 
L 412.45625 208.234375 
Q 412.45625 210.234375 414.45625 210.234375 
z
" style="fill:#ffffff;opacity:0.8;stroke:#cccccc;stroke-linejoin:miter;"/>
    </g>
    <g id="line2d_27">
     <path d="M 416.45625 156.064063 
L 436.45625 156.064063 
" style="fill:none;stroke:#1f77b4;stroke-linecap:square;stroke-width:1.5;"/>
    </g>
    <g id="line2d_28"/>
    <g id="text_12">
     <!-- loss -->
     <defs>
      <path d="M 9.421875 75.984375 
L 18.40625 75.984375 
L 18.40625 0 
L 9.421875 0 
z
" id="DejaVuSans-108"/>
      <path d="M 30.609375 48.390625 
Q 23.390625 48.390625 19.1875 42.75 
Q 14.984375 37.109375 14.984375 27.296875 
Q 14.984375 17.484375 19.15625 11.84375 
Q 23.34375 6.203125 30.609375 6.203125 
Q 37.796875 6.203125 41.984375 11.859375 
Q 46.1875 17.53125 46.1875 27.296875 
Q 46.1875 37.015625 41.984375 42.703125 
Q 37.796875 48.390625 30.609375 48.390625 
z
M 30.609375 56 
Q 42.328125 56 49.015625 48.375 
Q 55.71875 40.765625 55.71875 27.296875 
Q 55.71875 13.875 49.015625 6.21875 
Q 42.328125 -1.421875 30.609375 -1.421875 
Q 18.84375 -1.421875 12.171875 6.21875 
Q 5.515625 13.875 5.515625 27.296875 
Q 5.515625 40.765625 12.171875 48.375 
Q 18.84375 56 30.609375 56 
z
" id="DejaVuSans-111"/>
      <path d="M 44.28125 53.078125 
L 44.28125 44.578125 
Q 40.484375 46.53125 36.375 47.5 
Q 32.28125 48.484375 27.875 48.484375 
Q 21.1875 48.484375 17.84375 46.4375 
Q 14.5 44.390625 14.5 40.28125 
Q 14.5 37.15625 16.890625 35.375 
Q 19.28125 33.59375 26.515625 31.984375 
L 29.59375 31.296875 
Q 39.15625 29.25 43.1875 25.515625 
Q 47.21875 21.78125 47.21875 15.09375 
Q 47.21875 7.46875 41.1875 3.015625 
Q 35.15625 -1.421875 24.609375 -1.421875 
Q 20.21875 -1.421875 15.453125 -0.5625 
Q 10.6875 0.296875 5.421875 2 
L 5.421875 11.28125 
Q 10.40625 8.6875 15.234375 7.390625 
Q 20.0625 6.109375 24.8125 6.109375 
Q 31.15625 6.109375 34.5625 8.28125 
Q 37.984375 10.453125 37.984375 14.40625 
Q 37.984375 18.0625 35.515625 20.015625 
Q 33.0625 21.96875 24.703125 23.78125 
L 21.578125 24.515625 
Q 13.234375 26.265625 9.515625 29.90625 
Q 5.8125 33.546875 5.8125 39.890625 
Q 5.8125 47.609375 11.28125 51.796875 
Q 16.75 56 26.8125 56 
Q 31.78125 56 36.171875 55.265625 
Q 40.578125 54.546875 44.28125 53.078125 
z
" id="DejaVuSans-115"/>
     </defs>
     <g transform="translate(444.45625 159.564063)scale(0.1 -0.1)">
      <use xlink:href="#DejaVuSans-108"/>
      <use x="27.783203" xlink:href="#DejaVuSans-111"/>
      <use x="88.964844" xlink:href="#DejaVuSans-115"/>
      <use x="141.064453" xlink:href="#DejaVuSans-115"/>
     </g>
    </g>
    <g id="line2d_29">
     <path d="M 416.45625 170.742188 
L 436.45625 170.742188 
" style="fill:none;stroke:#ff7f0e;stroke-linecap:square;stroke-width:1.5;"/>
    </g>
    <g id="line2d_30"/>
    <g id="text_13">
     <!-- accuracy -->
     <defs>
      <path d="M 34.28125 27.484375 
Q 23.390625 27.484375 19.1875 25 
Q 14.984375 22.515625 14.984375 16.5 
Q 14.984375 11.71875 18.140625 8.90625 
Q 21.296875 6.109375 26.703125 6.109375 
Q 34.1875 6.109375 38.703125 11.40625 
Q 43.21875 16.703125 43.21875 25.484375 
L 43.21875 27.484375 
z
M 52.203125 31.203125 
L 52.203125 0 
L 43.21875 0 
L 43.21875 8.296875 
Q 40.140625 3.328125 35.546875 0.953125 
Q 30.953125 -1.421875 24.3125 -1.421875 
Q 15.921875 -1.421875 10.953125 3.296875 
Q 6 8.015625 6 15.921875 
Q 6 25.140625 12.171875 29.828125 
Q 18.359375 34.515625 30.609375 34.515625 
L 43.21875 34.515625 
L 43.21875 35.40625 
Q 43.21875 41.609375 39.140625 45 
Q 35.0625 48.390625 27.6875 48.390625 
Q 23 48.390625 18.546875 47.265625 
Q 14.109375 46.140625 10.015625 43.890625 
L 10.015625 52.203125 
Q 14.9375 54.109375 19.578125 55.046875 
Q 24.21875 56 28.609375 56 
Q 40.484375 56 46.34375 49.84375 
Q 52.203125 43.703125 52.203125 31.203125 
z
" id="DejaVuSans-97"/>
      <path d="M 48.78125 52.59375 
L 48.78125 44.1875 
Q 44.96875 46.296875 41.140625 47.34375 
Q 37.3125 48.390625 33.40625 48.390625 
Q 24.65625 48.390625 19.8125 42.84375 
Q 14.984375 37.3125 14.984375 27.296875 
Q 14.984375 17.28125 19.8125 11.734375 
Q 24.65625 6.203125 33.40625 6.203125 
Q 37.3125 6.203125 41.140625 7.25 
Q 44.96875 8.296875 48.78125 10.40625 
L 48.78125 2.09375 
Q 45.015625 0.34375 40.984375 -0.53125 
Q 36.96875 -1.421875 32.421875 -1.421875 
Q 20.0625 -1.421875 12.78125 6.34375 
Q 5.515625 14.109375 5.515625 27.296875 
Q 5.515625 40.671875 12.859375 48.328125 
Q 20.21875 56 33.015625 56 
Q 37.15625 56 41.109375 55.140625 
Q 45.0625 54.296875 48.78125 52.59375 
z
" id="DejaVuSans-99"/>
      <path d="M 8.5 21.578125 
L 8.5 54.6875 
L 17.484375 54.6875 
L 17.484375 21.921875 
Q 17.484375 14.15625 20.5 10.265625 
Q 23.53125 6.390625 29.59375 6.390625 
Q 36.859375 6.390625 41.078125 11.03125 
Q 45.3125 15.671875 45.3125 23.6875 
L 45.3125 54.6875 
L 54.296875 54.6875 
L 54.296875 0 
L 45.3125 0 
L 45.3125 8.40625 
Q 42.046875 3.421875 37.71875 1 
Q 33.40625 -1.421875 27.6875 -1.421875 
Q 18.265625 -1.421875 13.375 4.4375 
Q 8.5 10.296875 8.5 21.578125 
z
M 31.109375 56 
z
" id="DejaVuSans-117"/>
      <path d="M 41.109375 46.296875 
Q 39.59375 47.171875 37.8125 47.578125 
Q 36.03125 48 33.890625 48 
Q 26.265625 48 22.1875 43.046875 
Q 18.109375 38.09375 18.109375 28.8125 
L 18.109375 0 
L 9.078125 0 
L 9.078125 54.6875 
L 18.109375 54.6875 
L 18.109375 46.1875 
Q 20.953125 51.171875 25.484375 53.578125 
Q 30.03125 56 36.53125 56 
Q 37.453125 56 38.578125 55.875 
Q 39.703125 55.765625 41.0625 55.515625 
z
" id="DejaVuSans-114"/>
      <path d="M 32.171875 -5.078125 
Q 28.375 -14.84375 24.75 -17.8125 
Q 21.140625 -20.796875 15.09375 -20.796875 
L 7.90625 -20.796875 
L 7.90625 -13.28125 
L 13.1875 -13.28125 
Q 16.890625 -13.28125 18.9375 -11.515625 
Q 21 -9.765625 23.484375 -3.21875 
L 25.09375 0.875 
L 2.984375 54.6875 
L 12.5 54.6875 
L 29.59375 11.921875 
L 46.6875 54.6875 
L 56.203125 54.6875 
z
" id="DejaVuSans-121"/>
     </defs>
     <g transform="translate(444.45625 174.242188)scale(0.1 -0.1)">
      <use xlink:href="#DejaVuSans-97"/>
      <use x="61.279297" xlink:href="#DejaVuSans-99"/>
      <use x="116.259766" xlink:href="#DejaVuSans-99"/>
      <use x="171.240234" xlink:href="#DejaVuSans-117"/>
      <use x="234.619141" xlink:href="#DejaVuSans-114"/>
      <use x="275.732422" xlink:href="#DejaVuSans-97"/>
      <use x="337.011719" xlink:href="#DejaVuSans-99"/>
      <use x="391.992188" xlink:href="#DejaVuSans-121"/>
     </g>
    </g>
    <g id="line2d_31">
     <path d="M 416.45625 185.420313 
L 436.45625 185.420313 
" style="fill:none;stroke:#2ca02c;stroke-linecap:square;stroke-width:1.5;"/>
    </g>
    <g id="line2d_32"/>
    <g id="text_14">
     <!-- val_loss -->
     <defs>
      <path d="M 2.984375 54.6875 
L 12.5 54.6875 
L 29.59375 8.796875 
L 46.6875 54.6875 
L 56.203125 54.6875 
L 35.6875 0 
L 23.484375 0 
z
" id="DejaVuSans-118"/>
      <path d="M 50.984375 -16.609375 
L 50.984375 -23.578125 
L -0.984375 -23.578125 
L -0.984375 -16.609375 
z
" id="DejaVuSans-95"/>
     </defs>
     <g transform="translate(444.45625 188.920313)scale(0.1 -0.1)">
      <use xlink:href="#DejaVuSans-118"/>
      <use x="59.179688" xlink:href="#DejaVuSans-97"/>
      <use x="120.458984" xlink:href="#DejaVuSans-108"/>
      <use x="148.242188" xlink:href="#DejaVuSans-95"/>
      <use x="198.242188" xlink:href="#DejaVuSans-108"/>
      <use x="226.025391" xlink:href="#DejaVuSans-111"/>
      <use x="287.207031" xlink:href="#DejaVuSans-115"/>
      <use x="339.306641" xlink:href="#DejaVuSans-115"/>
     </g>
    </g>
    <g id="line2d_33">
     <path d="M 416.45625 200.376563 
L 436.45625 200.376563 
" style="fill:none;stroke:#d62728;stroke-linecap:square;stroke-width:1.5;"/>
    </g>
    <g id="line2d_34"/>
    <g id="text_15">
     <!-- val_accuracy -->
     <g transform="translate(444.45625 203.876563)scale(0.1 -0.1)">
      <use xlink:href="#DejaVuSans-118"/>
      <use x="59.179688" xlink:href="#DejaVuSans-97"/>
      <use x="120.458984" xlink:href="#DejaVuSans-108"/>
      <use x="148.242188" xlink:href="#DejaVuSans-95"/>
      <use x="198.242188" xlink:href="#DejaVuSans-97"/>
      <use x="259.521484" xlink:href="#DejaVuSans-99"/>
      <use x="314.501953" xlink:href="#DejaVuSans-99"/>
      <use x="369.482422" xlink:href="#DejaVuSans-117"/>
      <use x="432.861328" xlink:href="#DejaVuSans-114"/>
      <use x="473.974609" xlink:href="#DejaVuSans-97"/>
      <use x="535.253906" xlink:href="#DejaVuSans-99"/>
      <use x="590.234375" xlink:href="#DejaVuSans-121"/>
     </g>
    </g>
   </g>
  </g>
 </g>
 <defs>
  <clipPath id="pfbb6b28283">
   <rect height="271.8" width="446.4" x="72" y="43.2"/>
  </clipPath>
 </defs>
</svg>
